# xmcd
#
# Track frame offsets:
#	150
#	13825
#	26170
#	38815
#	52210
#	66047
#	77065
#	88592
#	101515
#	113455
#	125340
#	138277
#	150295
#	162125
#	173935
#	186500
#	199055
#	209385
#
# Disc length: 2962 seconds
#
# Revision: 1
# Processed by: cddbd v1.5.2PL0 Copyright (c) Steve Scherf et al.
# Submitted via: audiograbber 1.83.01
#
DISCID=ef0b9012
DTITLE=Bob Wills And His Texas Playboys - The Best Of
DYEAR=2006
DGENRE=Country
TTITLE0=Get With It
TTITLE1=I Ain't Got Nobody
TTITLE2=Steel Guitar Rag
TTITLE3=Trouble In Mind
TTITLE4=Red Hot Gal Of Mine
TTITLE5=Oozlin' Daddy Blues
TTITLE6=That's What I Like 'Bout The South
TTITLE7=Corrine Corrina
TTITLE8=Time Changes Everything
TTITLE9=New San Antonio Rose
TTITLE10=Liebestraum
TTITLE11=Take Me Back To Tulsa
TTITLE12=Bluer Than Blue
TTITLE13=Roly Poly
TTITLE14=Stay A Little Longer
TTITLE15=Brain Cloudy Blues
TTITLE16=Bubbles In My Beer
TTITLE17=Faded Love
EXTD=
EXTT0=
EXTT1=
EXTT2=
EXTT3=
EXTT4=
EXTT5=
EXTT6=
EXTT7=
EXTT8=
EXTT9=
EXTT10=
EXTT11=
EXTT12=
EXTT13=
EXTT14=
EXTT15=
EXTT16=
EXTT17=
PLAYORDER=
